<?xml version="1.0" encoding="UTF-8"?>
<svg id="Camada_2" data-name="Camada 2" xmlns="http://www.w3.org/2000/svg" viewBox="0 0 913.08 409.92">
  <defs>
    <style>
      .cls-1 {
        fill: #fff;
      }

      .cls-1, .cls-2 {
        stroke-width: 0px;
      }

      .cls-2 {
        fill: #fff;
      }

      .cls-3 {
        fill: #fff;
        stroke: #fff;
        stroke-miterlimit: 10;
        stroke-width: 8px;
      }
    </style>
  </defs>
  <g id="Camada_1-2" data-name="Camada 1">
    <g>
      <rect class="cls-2" x="521.79" y="269.67" width="133.68" height="99.06"/>
      <path class="cls-1" d="M639.23,78.7c-10.83-19.88-24.94-35.23-42.33-46.04-17.32-10.82-35.42-18.78-54.3-23.97-18.92-5.15-37.91-7.75-57.01-7.75-39.34,0-76.35,17.8-111.02,53.35h-1.57V12.48h-133.68v387.9c23.11-1.89,47.67-4.68,73.49-8.69,21.16-3.28,41.24-7.09,60.2-11.21v-195.24c0-19.59,8.16-37.35,24.51-53.35,16.43-16.08,34.7-24.12,54.87-24.12s37.34,7.75,50.17,23.24,19.24,33.58,19.24,54.23v224.66h133.68V148.13c0-26.38-5.42-49.55-16.25-69.43Z"/>
      <path class="cls-1" d="M188.87,409.92c-10.9,0-21.51-.29-31.82-.87-87.11-4.92-141.97-30.4-154.46-71.74-20.84-68.95,85.88-167.22,259.52-238.97,1.94-.79,4.16.11,4.96,2.06.8,1.94-.12,4.16-2.06,4.96C95.11,175.57-9.81,270.04,9.86,335.12c11.5,38.06,63.93,61.62,147.62,66.34,84.96,4.78,191.44-10.6,299.81-43.35,222.55-67.27,383.94-187.03,359.78-266.97C792.9,11.19,592.19.88,369.65,68.15c-1.99.62-4.13-.53-4.73-2.54-.61-2.01.53-4.13,2.54-4.73C594.01-7.6,798.97,4.99,824.34,88.94c25.38,83.95-138.3,207.96-364.86,276.44-96.08,29.04-190.78,44.53-270.61,44.53Z"/>
      <rect class="cls-2" x="239.32" y="81.21" width="31.98" height="57.99"/>
      <rect class="cls-2" x="361.69" y="30.95" width="11.49" height="61.02"/>
      <path class="cls-2" d="M372.75,94.52h193.32c22.16-28.8,29.14-56.61,18.74-68.54-2.06-2.36-5.54-4.96-11.84-6.24-29.31,1.91-62.3,5.71-98.04,12.61-38.45,7.42-72.66,17-102.17,26.94v35.23Z"/>
      <path class="cls-3" d="M817.25,10.91c-16.97,43.07-48.14,78.33-87.35,99.29,39.2,20.96,70.37,56.23,87.35,99.29,16.97-43.07,48.14-78.33,87.35-99.29-39.2-20.96-70.37-56.23-87.35-99.29Z"/>
    </g>
  </g>
</svg>