<?xml version="1.0" encoding="UTF-8"?>
<svg id="Camada_2" data-name="Camada 2" xmlns="http://www.w3.org/2000/svg" viewBox="0 0 381.15 82.15">
  <defs>
    <style>
      .cls-1 {
        fill: #000;
      }

      .cls-1, .cls-2, .cls-3, .cls-4, .cls-5 {
        stroke-width: 0px;
      }

      .cls-2 {
        fill: #cad899;
      }

      .cls-3 {
        fill: #7a4d95;
      }

      .cls-4 {
        fill: #51426d;
      }

      .cls-6 {
        fill: none;
        stroke: #fff;
        stroke-linecap: round;
        stroke-linejoin: round;
        stroke-width: 8px;
      }

      .cls-5 {
        fill: #fff;
      }
    </style>
  </defs>
  <g id="Camada_1-2" data-name="Camada 1">
    <g>
      <g>
        <path class="cls-2" d="M61.19,0H19.95C8.98,0,0,8.98,0,19.95v9.45c0-8.27,9.79-14.32,15.76-13.89s30.94,3.38,47.92,5.64c1.28.21,10.64,1.92,15.18,11.58,1.97,4.18,2.28,8.24,2.28,10.67v-23.44c0-10.97-8.98-19.95-19.95-19.95Z"/>
        <polygon class="cls-4" points="81.14 61.94 81.14 61.94 81.14 61.67 81.14 61.67 81.14 61.94"/>
        <path class="cls-3" d="M63.67,21.15c-16.97-2.26-41.95-5.22-47.92-5.64S0,21.12,0,29.4v31.77c0-1.53.31-4.09,2.28-6.72,4.55-6.08,13.9-7.16,15.18-7.29,16.97-1.43,33.95-2.85,50.92-4.28,7.15-1.1,12.75,4.26,12.75,9.47v9.31s0,0,0,0v-18.27c0-2.43-.31-6.49-2.28-10.67-4.55-9.66-13.9-11.37-15.18-11.58Z"/>
        <path class="cls-1" d="M81.14,52.35c0-5.21-5.6-10.57-12.75-9.47-16.97,1.43-33.95,2.85-50.92,4.28-1.28.13-10.64,1.21-15.18,7.29C.31,57.08,0,59.64,0,61.17v1.03c0,10.97,8.98,19.95,19.95,19.95h41.24c10.97,0,19.95-8.98,19.95-19.95v-9.84Z"/>
      </g>
      <g id="Interface_Check" data-name="Interface / Check">
        <path id="Vector" class="cls-6" d="M12.44,64.78l6.6,6.6,13.19-13.19"/>
      </g>
    </g>
    <g>
      <path class="cls-5" d="M101.89,31.57h-5.05v-7.73h5.28v-11.25h9.49v11.25h8.87v7.73h-8.87v15.15c0,6.43,5.05,7.34,7.73,7.34,1.07,0,1.76-.15,1.76-.15v8.49s-1.15.23-2.98.23c-5.43,0-16.22-1.61-16.22-14.69v-16.37Z"/>
      <path class="cls-5" d="M144.57,22.31c11.94,0,21.5,8.49,21.5,20.43s-9.56,20.43-21.42,20.43-21.5-8.42-21.5-20.43,9.56-20.43,21.42-20.43ZM144.65,54.9c6.27,0,11.55-4.9,11.55-12.16s-5.28-12.16-11.55-12.16-11.63,4.97-11.63,12.16,5.28,12.16,11.63,12.16Z"/>
      <path class="cls-5" d="M186.87,22.31c8.57,0,11.25,4.97,11.25,4.97h.15s-.08-.99-.08-2.22V7.93h9.72v54.32h-9.18v-3.21c0-1.45.15-2.52.15-2.52h-.15s-3.29,6.66-12.24,6.66c-10.56,0-17.29-8.34-17.29-20.43s7.34-20.43,17.67-20.43ZM188.7,54.98c5.05,0,9.79-3.67,9.79-12.32,0-6.04-3.21-12.01-9.72-12.01-5.35,0-9.79,4.36-9.79,12.09s3.98,12.24,9.72,12.24Z"/>
      <path class="cls-5" d="M232.13,22.31c11.93,0,21.5,8.49,21.5,20.43s-9.56,20.43-21.42,20.43-21.5-8.42-21.5-20.43,9.56-20.43,21.42-20.43ZM232.21,54.9c6.27,0,11.55-4.9,11.55-12.16s-5.28-12.16-11.55-12.16-11.63,4.97-11.63,12.16,5.28,12.16,11.63,12.16Z"/>
    </g>
    <g>
      <path class="cls-5" d="M286.71,36.97h1.31v-.54c0-5.17-3.24-6.95-7.56-6.95-5.63,0-10.81,3.78-10.81,3.78l-3.7-7.02s6.1-4.86,15.44-4.86c10.34,0,16.36,5.71,16.36,15.67v24.62h-9.03v-3.24c0-1.54.15-2.78.15-2.78h-.15c.08,0-3.01,6.95-11.96,6.95-7.02,0-13.35-4.4-13.35-12.27,0-12.5,16.9-13.35,23.31-13.35ZM279.23,54.95c5.17,0,8.88-5.56,8.88-10.34v-.93h-1.7c-5.02,0-13.12.69-13.12,6.17,0,2.62,1.93,5.09,5.94,5.09Z"/>
      <path class="cls-5" d="M300.94,22.3h8.95v2.86c0,1.47-.15,2.7-.15,2.7h.15s3.4-6.48,12.66-6.48c10.65,0,17.44,8.41,17.44,20.61s-7.64,20.61-17.98,20.61c-7.79,0-11.27-5.4-11.27-5.4h-.15s.15,1.39.15,3.4v16.52h-9.8V22.3ZM320.23,54.33c5.4,0,9.88-4.4,9.88-12.19s-4.01-12.35-9.8-12.35c-5.09,0-9.88,3.7-9.88,12.43,0,6.1,3.32,12.12,9.8,12.12Z"/>
      <path class="cls-5" d="M342.09,22.3h8.95v2.86c0,1.47-.15,2.7-.15,2.7h.15s3.4-6.48,12.66-6.48c10.65,0,17.44,8.41,17.44,20.61s-7.64,20.61-17.98,20.61c-7.79,0-11.27-5.4-11.27-5.4h-.15s.15,1.39.15,3.4v16.52h-9.8V22.3ZM361.39,54.33c5.4,0,9.88-4.4,9.88-12.19s-4.01-12.35-9.8-12.35c-5.09,0-9.88,3.7-9.88,12.43,0,6.1,3.32,12.12,9.8,12.12Z"/>
    </g>
  </g>
</svg>